<svg width="546" height="404" viewBox="0 0 546 404" fill="none" xmlns="http://www.w3.org/2000/svg">
<path d="M40.872 232H19.126V65.63L89.08 64.582C100.957 64.4073 109.865 67.0273 115.804 72.442C121.743 77.8567 124.712 86.1533 124.712 97.332V130.868C124.712 140.824 122.179 148.597 117.114 154.186C112.049 159.601 104.363 162.745 94.058 163.618L94.32 159.164C98.6867 160.037 102.093 161.959 104.538 164.928C106.983 167.897 109.167 172.264 111.088 178.028L129.952 232H108.206L86.198 167.286C85.674 166.238 85.15 165.452 84.626 164.928C84.2767 164.404 83.316 164.142 81.744 164.142H35.632L40.61 159.95L40.872 232ZM40.61 78.992V149.994L36.942 146.064H99.298C101.569 146.064 102.704 144.929 102.704 142.658V86.59C102.704 84.3193 101.569 83.184 99.298 83.184H36.942L40.61 78.992Z" fill="#3F0C3D"/>
<path d="M212.279 103.62V119.864H179.267L181.887 117.244V212.35C181.887 213.922 182.673 214.708 184.245 214.708H212.279V232H193.939C182.411 232 174.027 229.817 168.787 225.45C163.722 221.083 161.189 213.573 161.189 202.918V117.244L163.809 119.864H145.469V103.62H163.809L161.189 106.24V70.87H181.887V106.24L179.267 103.62H212.279Z" fill="#3F0C3D"/>
<path d="M339.933 199.774C339.933 210.603 336.789 218.9 330.501 224.664C324.213 230.428 315.13 233.223 303.253 233.048L232.251 232V65.63L300.109 64.582C311.986 64.4073 320.894 67.0273 326.833 72.442C332.946 77.8567 336.003 86.1533 336.003 97.332V122.746C336.003 133.051 332.859 140.387 326.571 144.754C320.283 149.121 311.2 151.304 299.323 151.304L302.729 143.706C315.305 143.531 324.649 145.627 330.763 149.994C336.876 154.186 339.933 161.784 339.933 172.788V199.774ZM253.473 152.09V217.852L249.543 214.184H314.519C316.615 214.184 317.663 213.049 317.663 210.778V159.426C317.663 157.33 316.615 156.282 314.519 156.282H249.805L253.473 152.09ZM253.473 78.73V142.396L249.805 138.466H310.589C312.685 138.466 313.733 137.331 313.733 135.06V86.328C313.733 84.0573 312.685 82.922 310.589 82.922H250.067L253.473 78.73Z" fill="#3F0C3D"/>
<path d="M436.072 119.078H391.532C389.786 119.078 388.912 119.951 388.912 121.698V213.922C388.912 215.669 389.786 216.542 391.532 216.542H436.072C437.644 216.542 438.43 215.669 438.43 213.922V121.698C438.43 119.951 437.644 119.078 436.072 119.078ZM368.214 204.752V130.868C368.214 120.039 370.747 112.528 375.812 108.336C381.052 103.969 389.349 101.786 400.702 101.786H426.902C438.43 101.786 446.727 103.969 451.792 108.336C456.858 112.528 459.39 120.039 459.39 130.868V204.752C459.39 215.407 456.858 222.917 451.792 227.284C446.727 231.651 438.43 233.834 426.902 233.834H400.702C389.349 233.834 381.052 231.651 375.812 227.284C370.747 222.917 368.214 215.407 368.214 204.752Z" fill="#3F0C3D"/>
<path d="M544.641 103.62V119.864H511.629L514.249 117.244V212.35C514.249 213.922 515.035 214.708 516.607 214.708H544.641V232H526.301C514.773 232 506.389 229.817 501.149 225.45C496.083 221.083 493.551 213.573 493.551 202.918V117.244L496.171 119.864H477.831V103.62H496.171L493.551 106.24V70.87H514.249V106.24L511.629 103.62H544.641Z" fill="#3F0C3D"/>
<path d="M541.5 362H377.5L363.5 390L349.5 362H312.75H275.5L261.5 314" stroke="#8F698E" stroke-width="12"/>
<path d="M13 362H157L172.5 262L190.5 362H244.5L258.5 320" stroke="#3F0C3D" stroke-width="12"/>
<circle cx="261.5" cy="315.5" r="10.5" fill="#3F0C3D"/>
<circle cx="261.5" cy="315.5" r="10.5" stroke="black"/>
</svg>
