<svg width="546" height="419" viewBox="0 0 546 419" fill="none" xmlns="http://www.w3.org/2000/svg">
<path d="M103.642 232.678H88V112.761L138.318 112.006C146.861 111.88 153.268 113.768 157.54 117.671C161.812 121.574 163.947 127.554 163.947 135.612V159.784C163.947 166.96 162.126 172.562 158.482 176.591C154.839 180.494 149.311 182.76 141.898 183.389L142.087 180.179C145.228 180.809 147.677 182.193 149.436 184.334C151.195 186.474 152.766 189.621 154.148 193.776L167.717 232.678H152.075L136.245 186.033C135.868 185.278 135.491 184.711 135.114 184.334C134.863 183.956 134.172 183.767 133.041 183.767H99.8727L103.453 180.746L103.642 232.678ZM103.453 122.392V173.569L100.815 170.737H145.667C147.301 170.737 148.117 169.918 148.117 168.282V127.869C148.117 126.232 147.301 125.414 145.667 125.414H100.815L103.453 122.392Z" fill="#D2C4D2"/>
<path d="M226.934 140.144V151.852H203.189L205.073 149.964V218.515C205.073 219.648 205.639 220.214 206.769 220.214H226.934V232.678H213.742C205.45 232.678 199.42 231.104 195.651 227.957C192.007 224.81 190.185 219.396 190.185 211.716V149.964L192.07 151.852H178.878V140.144H192.07L190.185 142.032V116.538H205.073V142.032L203.189 140.144H226.934Z" fill="#D2C4D2"/>
<path d="M318.755 209.45C318.755 217.256 316.493 223.236 311.97 227.39C307.447 231.545 300.914 233.559 292.371 233.433L241.3 232.678V112.761L290.109 112.006C298.653 111.88 305.06 113.768 309.332 117.671C313.729 121.574 315.928 127.554 315.928 135.612V153.93C315.928 161.357 313.666 166.645 309.143 169.793C304.62 172.94 298.087 174.514 289.544 174.514L291.994 169.037C301.04 168.911 307.761 170.422 312.159 173.569C316.556 176.591 318.755 182.068 318.755 189.999V209.45ZM256.564 175.08V222.48L253.738 219.837H300.474C301.982 219.837 302.736 219.018 302.736 217.382V180.368C302.736 178.857 301.982 178.102 300.474 178.102H253.926L256.564 175.08ZM256.564 122.204V168.093L253.926 165.26H297.648C299.155 165.26 299.909 164.442 299.909 162.805V127.68C299.909 126.043 299.155 125.225 297.648 125.225H254.114L256.564 122.204Z" fill="#D2C4D2"/>
<path d="M387.907 151.286H355.87C354.614 151.286 353.985 151.915 353.985 153.174V219.648C353.985 220.907 354.614 221.536 355.87 221.536H387.907C389.038 221.536 389.603 220.907 389.603 219.648V153.174C389.603 151.915 389.038 151.286 387.907 151.286ZM339.097 213.038V159.784C339.097 151.978 340.919 146.565 344.563 143.543C348.332 140.396 354.3 138.822 362.466 138.822H381.311C389.603 138.822 395.571 140.396 399.215 143.543C402.858 146.565 404.68 151.978 404.68 159.784V213.038C404.68 220.718 402.858 226.131 399.215 229.279C395.571 232.426 389.603 234 381.311 234H362.466C354.3 234 348.332 232.426 344.563 229.279C340.919 226.131 339.097 220.718 339.097 213.038Z" fill="#D2C4D2"/>
<path d="M466 140.144V151.852H442.255L444.139 149.964V218.515C444.139 219.648 444.705 220.214 445.835 220.214H466V232.678H452.808C444.516 232.678 438.486 231.104 434.716 227.957C431.073 224.81 429.251 219.396 429.251 211.716V149.964L431.136 151.852H417.944V140.144H431.136L429.251 142.032V116.538H444.139V142.032L442.255 140.144H466Z" fill="#D2C4D2"/>
<path d="M466 367.684H345.929L335.679 399L325.429 367.684H298.522H271.25L261 314" stroke="#D2C4D2" stroke-width="12"/>
<path d="M88 368H188.301L199.098 262L211.635 368H249.248L259 323.48" stroke="#D2C4D2" stroke-width="12"/>
<circle cx="261.5" cy="315.5" r="10.5" fill="#D2C4D2"/>
<circle cx="261.5" cy="315.5" r="10.5" stroke="#D2C4D2"/>
</svg>
