<?xml version="1.0" encoding="UTF-8" standalone="no"?>
<!-- Created with Inkscape (http://www.inkscape.org/) -->

<svg
   width="23.29183mm"
   height="12.793262mm"
   viewBox="0 0 23.29183 12.793262"
   version="1.1"
   id="svg5"
   inkscape:version="1.1 (c4e8f9ed74, 2021-05-24)"
   sodipodi:docname="rtbot-logo.svg"
   xmlns:inkscape="http://www.inkscape.org/namespaces/inkscape"
   xmlns:sodipodi="http://sodipodi.sourceforge.net/DTD/sodipodi-0.dtd"
   xmlns="http://www.w3.org/2000/svg"
   xmlns:svg="http://www.w3.org/2000/svg">
  <sodipodi:namedview
     id="namedview7"
     pagecolor="#ffffff"
     bordercolor="#666666"
     borderopacity="1.0"
     inkscape:pageshadow="2"
     inkscape:pageopacity="0.0"
     inkscape:pagecheckerboard="0"
     inkscape:document-units="mm"
     showgrid="false"
     showguides="false"
     fit-margin-top="0"
     fit-margin-left="0"
     fit-margin-right="0"
     fit-margin-bottom="0"
     inkscape:zoom="4.7037037"
     inkscape:cx="51.874016"
     inkscape:cy="29.551181"
     inkscape:window-width="1920"
     inkscape:window-height="999"
     inkscape:window-x="0"
     inkscape:window-y="0"
     inkscape:window-maximized="1"
     inkscape:current-layer="text18725" />
  <defs
     id="defs2" />
  <g
     inkscape:label="Layer 1"
     inkscape:groupmode="layer"
     id="layer1"
     transform="translate(-57.570141,-83.091594)">
    <g
       aria-label="RtBot"
       id="text18725"
       style="font-weight:900;font-stretch:semi-condensed;font-size:10.5833px;line-height:1.25;font-family:Inconsolata;-inkscape-font-specification:'Inconsolata, Heavy Semi-Condensed';stroke-width:0.264583">
      <path
         d="m 57.779849,89.68499 v -6.593396 h 1.947328 q 1.100663,0 1.629828,0.529165 0.539748,0.518582 0.539748,1.428746 0,0.613831 -0.275166,1.100663 -0.275166,0.476248 -0.761997,0.719664 l 1.195912,2.815158 h -1.396995 l -1.100663,-2.645825 h -0.380999 v 2.645825 z m 1.396996,-3.799405 h 0.624415 q 0.317499,0 0.497415,-0.190499 0.190499,-0.201083 0.190499,-0.603248 0,-0.359832 -0.190499,-0.571498 -0.179916,-0.22225 -0.497415,-0.22225 h -0.624415 z"
         id="path58183"
         style="fill:#c3916e;fill-opacity:1" />
      <path
         d="m 65.039981,89.81199 q -0.497415,0 -0.867831,-0.211666 -0.370415,-0.22225 -0.560915,-0.793748 -0.179916,-0.582081 -0.148166,-1.640411 l 0.05292,-1.301746 h -0.878414 l 0.02117,-1.12183 h 0.899581 l 0.04233,-1.15358 1.418162,-0.179916 0.09525,-0.01058 0.01058,0.116416 q -0.05292,0.0635 -0.09525,0.148166 -0.03175,0.07408 -0.04233,0.254 l -0.0635,0.825497 h 1.34408 l -0.02117,1.12183 h -1.333496 l -0.0635,1.248829 q -0.02117,0.624415 0.04233,0.973664 0.07408,0.338665 0.211666,0.476248 0.137582,0.127 0.306915,0.127 0.285749,0 0.529165,-0.116417 0.243416,-0.126999 0.412749,-0.275165 l 0.222249,0.99483 q -0.317499,0.253999 -0.709081,0.391582 -0.380999,0.127 -0.825497,0.127 z"
         id="path58185" />
      <path
         d="m 67.241295,89.68499 v -6.593396 h 1.883827 q 1.047747,0 1.608662,0.444499 0.560915,0.444498 0.560915,1.238246 0,0.455082 -0.211666,0.857247 -0.211666,0.402166 -0.613832,0.560915 0.476249,0.232833 0.761998,0.645581 0.285749,0.402166 0.285749,0.931331 0,0.878414 -0.613831,1.396995 -0.603249,0.518582 -1.788578,0.518582 z m 1.375829,-4.032237 h 0.433915 q 0.497415,0 0.677331,-0.1905 0.179916,-0.201082 0.179916,-0.571498 0,-0.645581 -0.761997,-0.645581 h -0.529165 z m 0,2.857491 h 0.613831 q 0.412749,0 0.634998,-0.211666 0.232833,-0.211666 0.232833,-0.571499 0,-0.433915 -0.232833,-0.677331 -0.232832,-0.253999 -0.793747,-0.253999 h -0.455082 z"
         id="path58187"
         style="fill:#c3916e;fill-opacity:1" />
      <path
         d="m 74.078095,89.801406 q -0.613832,0 -1.111247,-0.296332 -0.486832,-0.306916 -0.783164,-0.878414 -0.285749,-0.582082 -0.285749,-1.418162 0,-0.804331 0.285749,-1.386412 0.296332,-0.592665 0.793748,-0.910164 0.497415,-0.328082 1.100663,-0.328082 0.613831,0 1.111246,0.328082 0.497415,0.317499 0.793748,0.910164 0.296332,0.582081 0.296332,1.386412 0,0.825497 -0.296332,1.407579 -0.296333,0.582081 -0.793748,0.888997 -0.497415,0.296332 -1.111246,0.296332 z m 0,-1.132413 q 0.380999,0 0.613831,-0.380999 0.232833,-0.391582 0.232833,-1.079496 0,-0.740831 -0.232833,-1.111247 -0.232832,-0.380998 -0.613831,-0.380998 -0.349249,0 -0.592665,0.380998 -0.232833,0.370416 -0.232833,1.111247 0,0.687914 0.22225,1.079496 0.232832,0.380999 0.603248,0.380999 z"
         id="path58189"
         style="fill:#c3916e;fill-opacity:1" />
      <path
         d="m 79.327399,89.81199 q -0.497415,0 -0.867831,-0.211666 -0.370415,-0.22225 -0.560915,-0.793748 -0.179916,-0.582081 -0.148166,-1.640411 l 0.05292,-1.301746 H 76.92499 l 0.02117,-1.12183 h 0.899581 l 0.04233,-1.15358 1.418162,-0.179916 0.09525,-0.01058 0.01058,0.116416 q -0.05292,0.0635 -0.09525,0.148166 -0.03175,0.07408 -0.04233,0.254 l -0.0635,0.825497 h 1.344079 l -0.02117,1.12183 h -1.333496 l -0.0635,1.248829 q -0.02117,0.624415 0.04233,0.973664 0.07408,0.338665 0.211666,0.476248 0.137583,0.127 0.306916,0.127 0.285749,0 0.529165,-0.116417 0.243416,-0.126999 0.412749,-0.275165 l 0.222249,0.99483 q -0.317499,0.253999 -0.709081,0.391582 -0.380999,0.127 -0.825497,0.127 z"
         id="path58191"
         style="fill:#c3916e;fill-opacity:1" />
      <path
         style="fill:none;stroke:#000000;stroke-width:1.365;stroke-linecap:butt;stroke-linejoin:miter;stroke-miterlimit:4;stroke-dasharray:none;stroke-opacity:1"
         d="m 57.577591,95.028748 c 4.548971,-0.04966 5.808873,-2.775379 6.652386,-7.151755 v 0 c -0.955886,4.49146 5.619635,9.724267 7.207604,5.351766 1.07161,2.835262 6.732824,1.772729 9.359997,1.799999"
         id="path58344"
         sodipodi:nodetypes="ccccc" />
    </g>
  </g>
</svg>
